<?xml version="1.0" encoding="utf-8"?>
<!-- Generator: Adobe Illustrator 18.0.0, SVG Export Plug-In . SVG Version: 6.00 Build 0)  -->
<!DOCTYPE svg PUBLIC "-//W3C//DTD SVG 1.1//EN" "http://www.w3.org/Graphics/SVG/1.1/DTD/svg11.dtd">
<svg version="1.1" id="图层_1" xmlns="http://www.w3.org/2000/svg" xmlns:xlink="http://www.w3.org/1999/xlink" x="0px" y="0px"
	 viewBox="0 0 200 200" enable-background="new 0 0 200 200" xml:space="preserve">
<g>
	<path fill="#571780" d="M134.1,110.2c-3.3,0-6.4-1.5-9.1-2.9c-19.5-9.8-35.9-9.6-51.7,0.3c-5,3.2-9.6,3.2-13.8,0.4
		c-10.1-6.9-20.9-7.5-34.6-1.7c-0.4,0.2-0.8,0.3-1.1,0.5c-1.4,0.7-3.1,1.4-4.9,1.4c-1.7,0-3.2-0.7-4.5-1.9c-3.1-3-2.1-6.7-1.4-9.4
		l0.2-1c9.8-41.4,46.2-70.1,88.2-69.4c38.6,0.7,71.5,24.7,84,61.1c1.1,3.3,1.8,7.1,2.2,11.5c0.3,3.3-0.3,5.8-1.8,7.3
		c-1.1,1.2-2.6,1.8-4.3,1.8h0c-1.5,0-3.2-0.4-5-1.3c-14-6.6-25.5-6.1-36.6,1.4C138.1,109.6,136.2,110.2,134.1,110.2z M98.2,96.2
		c9.1,0,18.5,2.5,28.7,7.6c2.3,1.1,4.9,2.4,7.3,2.4c1.3,0,2.4-0.4,3.5-1.1c6.5-4.4,13.4-6.6,20.6-6.6c6.3,0,12.8,1.6,19.9,4.9
		c1.3,0.6,2.5,0.9,3.3,0.9l0,0c0.8,0,1.2-0.3,1.4-0.5c0.6-0.7,0.9-2.3,0.8-4.3c-0.3-4.1-1-7.6-2-10.6
		c-11.9-34.9-43.5-57.8-80.3-58.4c-40.1-0.7-74.8,26.8-84.2,66.3l-0.3,1c-0.7,2.7-1,4.2,0.4,5.6c0.7,0.7,1.3,0.8,1.7,0.8
		c0.9,0,2-0.5,3.2-1.1c0.4-0.2,0.8-0.4,1.2-0.6c6.7-2.9,12.8-4.2,18.7-4.2c7,0,13.7,2.1,19.8,6.3c2.9,2,5.8,1.8,9.4-0.5
		C79.8,98.9,88.9,96.2,98.2,96.2z"/>
	<path fill="#571780" d="M66.6,108.1l-4-0.2c3.8-65.7,34.6-80.5,36-81.1l1.7,3.6C100,30.5,70.3,45.1,66.6,108.1z"/>
	<path fill="#571780" d="M132.2,108.1c-1.9-33-11-52.4-18.3-62.9C106.2,34,98.7,30.4,98.6,30.4l1.7-3.6c1.3,0.6,32.1,15.4,36,81.1
		L132.2,108.1z"/>
	<path fill="#571780" d="M86.7,173.4c-8.4,0-15.3-6.9-15.3-15.3h4c0,6.2,5.1,11.3,11.3,11.3S98,164.4,98,158.1V98.2h4v59.9
		C102,166.6,95.1,173.4,86.7,173.4z"/>
</g>
</svg>
