<?xml version="1.0" encoding="utf-8"?>
<!-- Generator: Adobe Illustrator 18.0.0, SVG Export Plug-In . SVG Version: 6.00 Build 0)  -->
<!DOCTYPE svg PUBLIC "-//W3C//DTD SVG 1.1//EN" "http://www.w3.org/Graphics/SVG/1.1/DTD/svg11.dtd">
<svg version="1.1" id="图层_1" xmlns="http://www.w3.org/2000/svg" xmlns:xlink="http://www.w3.org/1999/xlink" x="0px" y="0px"
	 viewBox="0 0 88 88" enable-background="new 0 0 88 88" xml:space="preserve">
<g>
	<g>
		<g>
			<path fill="none" stroke="#7B37A6" stroke-width="2" stroke-linecap="round" stroke-linejoin="round" d="M51.2,51.1l16.4,15.7
				c0.7,0.7,1.7,1.1,2.6,1.1h11.3"/>
			<g>
				<polygon fill="#7B37A6" points="75,76.1 73.6,74.6 80.8,67.9 73.6,61.2 75,59.7 83.8,67.9 				"/>
			</g>
		</g>
	</g>
	<path fill="none" stroke="#7B37A6" stroke-width="2" stroke-linecap="round" stroke-linejoin="round" stroke-miterlimit="10" d="
		M4.2,20.1h13c1,0,1.9,0.4,2.6,1.1l16.3,15.5"/>
	<g>
		<g>
			<path fill="none" stroke="#7B37A6" stroke-width="2" stroke-linecap="round" stroke-linejoin="round" d="M4.2,67.9h13
				c1,0,1.9-0.4,2.7-1.1l47.7-45.7c0.7-0.7,1.7-1.1,2.6-1.1h11.3"/>
			<g>
				<polygon fill="#7B37A6" points="75,28.3 73.6,26.8 80.8,20.1 73.6,13.4 75,11.9 83.8,20.1 				"/>
			</g>
		</g>
	</g>
</g>
</svg>
