<?xml version="1.0" encoding="utf-8"?>
<!-- Generator: Adobe Illustrator 18.0.0, SVG Export Plug-In . SVG Version: 6.00 Build 0)  -->
<!DOCTYPE svg PUBLIC "-//W3C//DTD SVG 1.1//EN" "http://www.w3.org/Graphics/SVG/1.1/DTD/svg11.dtd">
<svg version="1.1" id="图层_1" xmlns="http://www.w3.org/2000/svg" xmlns:xlink="http://www.w3.org/1999/xlink" x="0px" y="0px"
	 viewBox="-65 0 160 160" enable-background="new -65 0 160 160" xml:space="preserve">
<g>
	<circle fill="none" stroke="#7B37A6" stroke-width="4" stroke-linecap="round" stroke-miterlimit="10" cx="15" cy="80" r="77"/>
	<path fill="none" stroke="#7B37A6" stroke-width="4" stroke-linecap="round" stroke-miterlimit="10" d="M88.6,59.2
		C85,70.9,78.7,81.8,69.4,91c-30.1,30.1-78.8,30.1-108.9,0c-9.2-9.2-15.6-20.2-19.2-31.8"/>
	<path fill="none" stroke="#7B37A6" stroke-width="4" stroke-linecap="round" stroke-miterlimit="10" d="M44.1,151.5
		c-11.3-3.5-22-9.6-30.9-18.6C-16,103.7-16,56.4,13.2,27.1C22.2,18.2,32.8,12,44.1,8.6"/>
	<path fill="none" stroke="#7B37A6" stroke-width="4" stroke-linecap="round" stroke-miterlimit="10" d="M-54,47.4
		c9.7-7.7,21.4-13.1,34.4-15.5C22.9,24.2,63.8,52.4,71.5,95c2.4,13,1.4,25.8-2.4,37.7"/>
	<circle fill="#7B37A6" cx="7.9" cy="33.4" r="13.2"/>
	<circle fill="#7B37A6" cx="-5.3" cy="109.4" r="13.2"/>
	<circle fill="#7B37A6" cx="69.1" cy="88.2" r="13.2"/>
</g>
</svg>
