<?xml version="1.0" encoding="utf-8"?>
<!-- Generator: Adobe Illustrator 18.0.0, SVG Export Plug-In . SVG Version: 6.00 Build 0)  -->
<!DOCTYPE svg PUBLIC "-//W3C//DTD SVG 1.1//EN" "http://www.w3.org/Graphics/SVG/1.1/DTD/svg11.dtd">
<svg version="1.1" id="图层_1" xmlns="http://www.w3.org/2000/svg" xmlns:xlink="http://www.w3.org/1999/xlink" x="0px" y="0px"
	 viewBox="0 0 88 88" enable-background="new 0 0 88 88" xml:space="preserve">
<path fill="none" stroke="#7A7A7A" stroke-miterlimit="10" d="M362.4,390.3H346c-1.6,0-2.9-1.3-2.9-2.9v-11.6c0-1.6,1.3-2.9,2.9-2.9
	h16.4c1.6,0,2.9,1.3,2.9,2.9v11.6C365.4,389,364.1,390.3,362.4,390.3z"/>
<line fill="none" stroke="#7A7A7A" stroke-miterlimit="10" x1="343.1" y1="379.7" x2="365.4" y2="379.7"/>
<path fill="none" stroke="#7A7A7A" stroke-miterlimit="10" d="M358.1,372.9V371c0-0.8-0.7-1.5-1.5-1.5h-4.6c-0.8,0-1.5,0.7-1.5,1.5
	v1.9"/>
<path fill="#7A7A7A" d="M354.6,383.4h-0.7c-0.9,0-1.6-0.7-1.6-1.6v-2.9c0-0.9,0.7-1.6,1.6-1.6h0.7c0.9,0,1.6,0.7,1.6,1.6v2.9
	C356.2,382.6,355.5,383.4,354.6,383.4z"/>
<g>
	<g>
		<g>
			<path fill="none" stroke="#7B37A6" stroke-width="2" stroke-miterlimit="10" d="M86.5,1.6c0,0-22.5-0.6-28.9,5.8L16.4,48.6
				l23.1,23.1l41.2-41.2C87.1,24.1,86.5,1.6,86.5,1.6z"/>
			<path fill="none" stroke="#7B37A6" stroke-width="2" stroke-miterlimit="10" d="M15.5,55.3c-4.6,4.6-8.5,25.2-8.5,25.2
				s20.6-3.9,25.2-8.5"/>
			<circle fill="none" stroke="#7B37A6" stroke-width="2" stroke-miterlimit="10" cx="59.5" cy="27.9" r="6.6"/>
			<line fill="none" stroke="#7B37A6" stroke-width="2" stroke-miterlimit="10" x1="41.5" y1="45.9" x2="27.6" y2="59.8"/>
			<polygon fill="none" stroke="#7B37A6" stroke-width="2" stroke-miterlimit="10" points="52.9,85.1 39.5,71.7 52.9,58.2 			"/>
			<polygon fill="none" stroke="#7B37A6" stroke-width="2" stroke-miterlimit="10" points="2.9,35.1 16.4,48.6 29.8,35.1 			"/>
		</g>
	</g>
</g>
</svg>
