<?xml version="1.0" encoding="utf-8"?>
<!-- Generator: Adobe Illustrator 18.0.0, SVG Export Plug-In . SVG Version: 6.00 Build 0)  -->
<!DOCTYPE svg PUBLIC "-//W3C//DTD SVG 1.1//EN" "http://www.w3.org/Graphics/SVG/1.1/DTD/svg11.dtd">
<svg version="1.1" id="图层_1" xmlns="http://www.w3.org/2000/svg" xmlns:xlink="http://www.w3.org/1999/xlink" x="0px" y="0px"
	 viewBox="0 0 120 120" enable-background="new 0 0 120 120" xml:space="preserve">
<path fill="none" stroke="#7B37A6" stroke-width="2" stroke-miterlimit="10" d="M79.4,112.2H40.5c-11.1,0-20.1-9-20.1-20.1V57.2
	c0-3.1,2.5-5.6,5.6-5.6h67.8c3.1,0,5.6,2.5,5.6,5.6v34.9C99.4,103.2,90.5,112.2,79.4,112.2z"/>
<path fill="none" stroke="#7B37A6" stroke-width="2" stroke-miterlimit="10" d="M87.6,51.5V32.3c0-14.2-11.5-25.7-25.7-25.7H57
	c-14.2,0-25.7,11.5-25.7,25.7v19.4"/>
<path fill="none" stroke="#7B37A6" stroke-width="2" stroke-miterlimit="10" d="M63.2,72.9l-2.7-2.5c-0.6-0.6-1.6-0.6-2.2,0
	l-2.7,2.5c-0.3,0.3-0.5,0.7-0.4,1.2L58,90.7h2.9L63.6,74C63.7,73.6,63.5,73.1,63.2,72.9z"/>
<path fill="none" stroke="#7B37A6" stroke-width="2" stroke-miterlimit="10" d="M80.2,51.5V32.6c0-10.5-8.5-18.9-18.9-18.9h-3.6
	c-10.5,0-18.9,8.5-18.9,18.9v19"/>
</svg>
