<?xml version="1.0" encoding="utf-8"?>
<!-- Generator: Adobe Illustrator 18.0.0, SVG Export Plug-In . SVG Version: 6.00 Build 0)  -->
<!DOCTYPE svg PUBLIC "-//W3C//DTD SVG 1.1//EN" "http://www.w3.org/Graphics/SVG/1.1/DTD/svg11.dtd">
<svg version="1.1" id="图层_1" xmlns="http://www.w3.org/2000/svg" xmlns:xlink="http://www.w3.org/1999/xlink" x="0px" y="0px"
	 viewBox="0 0 70 70" enable-background="new 0 0 70 70" xml:space="preserve">
<path fill="none" stroke="#7B37A6" stroke-linecap="round" stroke-linejoin="round" stroke-miterlimit="10" d="M35,56.5l-1.8-1.4
	c-10.5-8.1-16.9-13-20.5-19.4c-2.7-4.7-3.4-9.3-2.1-13.3c1.1-3.4,3.6-6.1,7-7.7c1.8-0.8,3.7-1.2,5.7-1.2c4.8,0,9.3,2.4,11.7,6.1
	c2.4-3.7,6.9-6,11.7-6c2,0,3.9,0.4,5.7,1.2c3.4,1.6,5.9,4.3,7,7.7c1.3,4.1,0.6,8.7-2.1,13.3c-3.6,6.4-10,11.3-20.5,19.4L35,56.5
	L35,56.5z"/>
</svg>
