<?xml version="1.0" encoding="utf-8"?>
<!-- Generator: Adobe Illustrator 18.0.0, SVG Export Plug-In . SVG Version: 6.00 Build 0)  -->
<!DOCTYPE svg PUBLIC "-//W3C//DTD SVG 1.1//EN" "http://www.w3.org/Graphics/SVG/1.1/DTD/svg11.dtd">
<svg version="1.1" id="图层_1" xmlns="http://www.w3.org/2000/svg" xmlns:xlink="http://www.w3.org/1999/xlink" x="0px" y="0px"
	 viewBox="0 0 70 70" enable-background="new 0 0 70 70" xml:space="preserve">
<g>
	<path fill="none" stroke="#7B37A6" stroke-linecap="round" stroke-miterlimit="10" d="M31.4,62.8L31.4,62.8c0.5,1,1.5,1.6,2.6,1.6
		h2.1c1.1,0,2.1-0.6,2.6-1.6l0,0"/>
	<path fill="none" stroke="#7B37A6" stroke-linecap="round" stroke-miterlimit="10" d="M42.1,53c0,0.8-0.6,1.4-1.4,1.4H29.3
		c-0.8,0-1.4-0.6-1.4-1.4c0-0.8,0.6-1.4,1.3-1.4c-0.9-8-9.2-9.8-9.2-19.2c0-8.2,6.7-14.9,14.9-14.9c8.2,0,14.9,6.7,14.9,14.9
		c0,9.4-8.3,11.2-9.2,19.2C41.5,51.7,42.1,52.3,42.1,53L42.1,53z"/>
	<path fill="none" stroke="#7B37A6" stroke-linecap="round" stroke-miterlimit="10" d="M23.6,29.6c0.9-3.8,3.6-6.9,7.2-8.3"/>
	<line fill="none" stroke="#7B37A6" stroke-linecap="round" stroke-miterlimit="10" x1="28.8" y1="57.2" x2="41.2" y2="57.2"/>
	<line fill="none" stroke="#7B37A6" stroke-linecap="round" stroke-miterlimit="10" x1="29.6" y1="60" x2="40.4" y2="60"/>
	<line fill="none" stroke="#7B37A6" stroke-linecap="round" stroke-miterlimit="10" x1="35" y1="13.2" x2="35" y2="5.6"/>
	<line fill="none" stroke="#7B37A6" stroke-linecap="round" stroke-miterlimit="10" x1="53.9" y1="31.7" x2="61.6" y2="31.7"/>
	<line fill="none" stroke="#7B37A6" stroke-linecap="round" stroke-miterlimit="10" x1="48.4" y1="45.1" x2="53.8" y2="50.5"/>
	<line fill="none" stroke="#7B37A6" stroke-linecap="round" stroke-miterlimit="10" x1="48.5" y1="18.4" x2="53.8" y2="12.9"/>
	<g>
		<line fill="none" stroke="#7B37A6" stroke-linecap="round" stroke-miterlimit="10" x1="16.1" y1="31.7" x2="8.4" y2="31.7"/>
		<line fill="none" stroke="#7B37A6" stroke-linecap="round" stroke-miterlimit="10" x1="21.6" y1="45.1" x2="16.2" y2="50.5"/>
		<line fill="none" stroke="#7B37A6" stroke-linecap="round" stroke-miterlimit="10" x1="21.5" y1="18.4" x2="16.2" y2="12.9"/>
	</g>
</g>
</svg>
